# 3ds Max Wavefront OBJ Exporter v0.97b - (c)2007 guruware
# File Created: 18.10.2017 01:07:34

mtllib 869374.mtl

#
# object Plane011
#

v  -280.2814 62.0579 7.3016
v  -279.0595 61.3661 7.8287
v  -278.8408 61.4193 8.0118
v  -280.7819 62.3689 7.0549
v  -280.9723 62.3775 7.0113
v  -278.7175 60.1436 8.7934
v  -278.4533 60.1598 8.8744
v  -278.6672 58.8857 9.6218
v  -278.4073 58.9300 9.6707
v  -279.8633 57.3323 10.7631
v  -279.6053 57.4260 10.8196
v  -280.9687 56.7766 11.5882
v  -279.5231 59.2492 13.5355
v  -278.2348 60.2812 12.6675
v  -277.4484 62.8276 10.5566
v  -277.7771 63.8626 9.7272
v  -277.4734 61.7476 11.5083
v  -283.3684 78.0555 9.9836
v  -283.5201 78.0574 9.9774
v  -283.8455 71.3603 10.5522
v  -283.7625 71.3593 10.5547
v  -283.7733 71.1393 10.5660
v  -283.8545 71.1401 10.5655
v  -283.8572 70.8708 10.4124
v  -283.7761 70.8699 10.4129
v  -279.0896 64.8514 8.7831
v  -283.7617 65.9250 7.6751
v  -282.6273 65.7484 7.8748
v  -282.4568 65.8160 7.8192
v  -283.7227 65.9671 7.4683
v  -280.9904 65.3892 8.0808
v  -280.7537 65.4939 8.1096
v  -277.6086 63.9246 9.7476
v  -278.8361 64.9255 8.8076
v  -277.1581 62.8751 10.6072
v  -277.1699 61.7870 11.5287
v  -277.9416 60.2988 12.7490
v  -279.2544 59.2445 13.6368
v  -282.4176 58.1519 14.2241
v  -282.2327 58.0843 14.3581
v  -284.3182 58.0723 14.3153
v  -284.3193 57.9704 14.4762
v  -281.7918 56.5055 11.7728
v  -284.3818 56.2152 11.5908
v  -284.4113 62.7067 6.4012
v  -284.1385 61.8432 6.4279
v  -284.2336 61.3142 6.6683
v  -284.3628 60.0381 7.4203
v  -284.0667 58.3897 8.8102
v  -284.3770 56.7164 10.3332
v  -284.3462 56.2483 11.2709
v  -281.8518 56.4735 11.2291
v  -284.1862 65.3404 7.5770
v  -284.1839 65.6939 7.6467
v  -283.8556 65.8615 7.6721
v  -284.1868 65.7905 7.6723
v  -283.9087 65.9384 7.7411
v  -283.8299 65.9349 7.7358
v  -282.9864 86.0342 9.2162
v  -283.2009 86.0379 9.2169
v  -282.7191 97.3802 8.8813
v  -282.7133 97.6236 8.8741
v  -283.8127 97.7878 8.8755
v  -283.8157 97.5413 8.8825
v  -282.9620 97.4159 8.8815
v  -289.5725 61.5558 7.8298
v  -288.9948 61.6497 7.8259
v  -288.0489 62.1789 7.3784
v  -287.3082 62.4285 6.9828
v  -287.5376 62.4784 7.1300
v  -290.0359 60.3200 8.5060
v  -289.7720 60.2981 8.4286
v  -290.0345 59.1312 9.3126
v  -289.7757 59.0808 9.2676
v  -289.2786 57.5487 10.6375
v  -289.0274 57.4446 10.6265
v  -290.5949 60.5817 12.8684
v  -289.1662 59.3829 13.7474
v  -287.8893 56.9171 11.2073
v  -290.5400 64.3258 9.7642
v  -291.1652 62.9139 10.8989
v  -291.1783 62.0105 11.6595
v  -284.7394 78.0720 9.9639
v  -284.5118 71.3682 10.5504
v  -284.4115 71.3670 10.5485
v  -284.5558 78.0698 9.9617
v  -284.5065 71.1480 10.5617
v  -284.5081 70.8784 10.4085
v  -284.4102 70.8773 10.4091
v  -284.4084 71.1466 10.5623
v  -289.3203 65.1401 8.7395
v  -285.8766 65.8834 7.8522
v  -285.6700 65.8092 7.9698
v  -284.6079 65.9710 7.6341
v  -284.6483 65.9722 7.4546
v  -287.6515 65.5989 8.2774
v  -287.4194 65.4851 8.2406
v  -289.5709 65.2411 8.7545
v  -290.8145 64.1784 9.7794
v  -291.4571 62.9687 10.9482
v  -291.4770 62.0529 11.7243
v  -290.8894 60.6062 12.9480
v  -289.4393 59.3861 13.8437
v  -286.3351 58.3208 14.2465
v  -286.5229 58.2536 14.3849
v  -286.8901 56.4845 11.4168
v  -286.8501 56.5551 11.1493
v  -284.5162 65.8694 7.6683
v  -284.1422 70.8741 10.4107
v  -284.4457 65.9455 7.7393
v  -284.1855 65.9507 7.7598
v  -284.6635 86.0556 9.2002
v  -284.9223 86.0574 9.1933
v  -284.9157 97.6498 8.8613
v  -284.9158 97.4064 8.8685
v  -284.6215 97.4425 8.8723
v  -284.5411 65.8903 7.7029
v  -284.1860 65.8976 7.7312
v  -284.4461 65.8923 7.7105
v  -283.8305 65.8816 7.7069
v  -283.9092 65.8852 7.7123
v  -278.7165 61.3531 7.7746
v  -279.0090 61.3295 7.6841
v  -280.2108 61.9918 7.0599
v  -280.9467 62.4740 6.8128
v  -280.7389 62.6036 6.9130
v  -278.6652 60.0791 8.6596
v  -278.3488 60.1134 8.7661
v  -278.6169 58.7892 9.5079
v  -278.2964 58.8445 9.5987
v  -279.5067 57.3076 10.7867
v  -279.8038 57.2155 10.6758
v  -279.4554 59.1154 13.4875
v  -280.9030 56.7104 11.4358
v  -278.1417 60.1799 12.5909
v  -277.7009 63.8124 9.5988
v  -277.3705 62.7473 10.5724
v  -277.3745 61.6675 11.4155
v  -284.1364 71.3503 10.3956
v  -284.0533 78.0494 9.8228
v  -283.3676 78.0412 9.8268
v  -283.7617 71.3459 10.3978
v  -284.1404 70.9522 10.2740
v  -284.1385 71.1785 10.4103
v  -283.7719 71.1742 10.4124
v  -283.7745 70.9479 10.2761
v  -279.0359 64.8232 8.6377
v  -282.4600 65.6961 7.7172
v  -282.6144 65.6897 7.7293
v  -283.7474 65.8331 7.5480
v  -283.7467 65.8279 7.5380
v  -280.7246 65.4326 7.9675
v  -280.9538 65.4115 7.9292
v  -278.8067 64.8442 8.6760
v  -277.5796 63.8287 9.6261
v  -277.1413 62.7684 10.6107
v  -277.1454 61.6885 11.4537
v  -277.9126 60.2010 12.6291
v  -279.2261 59.1365 13.5257
v  -282.2188 57.9715 14.2490
v  -282.3937 57.9982 14.1993
v  -284.2976 57.9403 14.3077
v  -284.3029 57.9324 14.1713
v  -284.3633 56.2075 11.8111
v  -281.7407 56.3952 11.7731
v  -284.2168 61.9965 6.3484
v  -284.4107 62.7344 6.2462
v  -284.1653 59.9788 7.2984
v  -284.2329 61.2904 6.5126
v  -284.0673 58.2855 8.6923
v  -284.3691 56.7301 10.0258
v  -281.5745 56.3571 11.4710
v  -284.3928 56.0407 11.6357
v  -284.1902 65.3888 7.4272
v  -284.1867 65.7187 7.4912
v  -284.1853 65.8483 7.5258
v  -283.8380 65.8591 7.5157
v  -284.1842 65.9723 7.5926
v  -283.8361 66.0100 7.5975
v  -283.8368 65.9567 7.5686
v  -283.9537 86.0412 9.0509
v  -282.9852 86.0243 9.0590
v  -282.7141 97.6191 8.7167
v  -282.7198 97.3756 8.7239
v  -283.8149 97.5367 8.7251
v  -283.8119 97.7833 8.7181
v  -288.0925 62.1440 7.2312
v  -289.3651 61.5154 7.6108
v  -289.6580 61.5460 7.6979
v  -287.5380 62.4116 6.8722
v  -287.2747 62.2855 6.7544
v  -289.8243 60.2349 8.2943
v  -290.1411 60.2766 8.3971
v  -289.8270 58.9855 9.1532
v  -290.1472 59.0484 9.2402
v  -289.2199 57.4411 10.6210
v  -289.0961 57.5488 10.5120
v  -289.2398 59.2539 13.6952
v  -290.6904 60.4821 12.7925
v  -287.5995 56.6056 11.5963
v  -290.6162 64.2715 9.6375
v  -291.2580 62.8475 10.7903
v  -291.2780 61.9318 11.5665
v  -284.5110 71.3548 10.3935
v  -284.7390 78.0575 9.8188
v  -284.5063 70.9566 10.2719
v  -284.5052 71.1829 10.4082
v  -289.3718 65.1274 8.5913
v  -284.6236 65.8435 7.5430
v  -285.6874 65.7327 7.8332
v  -285.8687 65.7352 7.7993
v  -284.6208 65.8375 7.5314
v  -287.6817 65.5765 8.1245
v  -287.4531 65.5075 8.0884
v  -289.6009 65.1539 8.6268
v  -290.8445 64.0838 9.6571
v  -291.4871 62.8741 10.8259
v  -291.5070 61.9583 11.6021
v  -290.9194 60.5086 12.8280
v  -289.4689 59.2804 13.7307
v  -286.3637 58.1677 14.2241
v  -286.5397 58.1452 14.2719
v  -286.9657 56.3595 12.0470
v  -287.0128 56.4546 11.3398
v  -284.5321 65.8674 7.5116
v  -284.5316 65.9650 7.5646
v  -284.5313 66.0183 7.5935
v  -284.9222 86.0474 9.0478
v  -284.9132 97.6453 8.7039
v  -284.6106 97.6832 8.7078
v  -284.6116 97.4389 8.7150
v  -284.9134 97.4018 8.7111
v  -284.5408 65.9436 7.7318
v  -283.9548 86.0509 9.2193
v  -284.0533 78.0639 9.9558
v  -284.1369 71.3638 10.5434
v  -284.1399 71.1429 10.5637
# 237 vertices

vn 0.4919 0.8699 -0.0370
vn -0.4747 0.1442 0.8682
vn -0.7144 -0.0236 0.6993
vn -0.2912 0.0197 0.9565
vn -0.1881 -0.0971 0.9773
vn -0.2447 0.5418 0.8041
vn -0.6868 0.3319 0.6467
vn -0.2160 0.6109 0.7616
vn -0.7390 0.5621 0.3714
vn -0.2987 0.8312 0.4688
vn -0.6169 0.7867 0.0221
vn -0.3874 0.9123 -0.1327
vn -0.4566 0.8790 0.1375
vn -0.6004 0.7342 0.3169
vn -0.6374 0.4273 0.6412
vn -0.5493 0.2681 0.7914
vn -0.6200 0.5811 0.5272
vn 0.6904 0.0288 0.7228
vn -0.0393 0.0918 0.9950
vn -0.0293 0.0741 0.9968
vn 0.6886 0.0127 0.7250
vn 0.6382 -0.1935 0.7451
vn -0.0083 -0.2262 0.9740
vn -0.0109 -0.4851 0.8744
vn 0.7019 -0.3515 0.6194
vn -0.3914 0.1679 0.9048
vn -0.4151 0.7727 0.4803
vn -0.0834 0.3237 0.9425
vn 0.1727 0.9847 0.0230
vn -0.3455 0.5437 -0.7649
vn -0.1510 0.3033 0.9409
vn 0.0709 0.9009 0.4281
vn 0.4828 0.7620 0.4315
vn 0.2874 0.9056 0.3120
vn 0.6675 0.6092 0.4282
vn 0.6032 0.4257 0.6744
vn 0.4983 0.2443 0.8319
vn 0.3023 0.1469 0.9418
vn -0.1593 0.9872 -0.0120
vn 0.1099 0.0427 0.9930
vn 0.0409 0.9992 -0.0025
vn -0.0135 -0.2389 0.9709
vn -0.2254 0.9732 -0.0454
vn 0.0182 0.9706 -0.2401
vn 0.0322 -0.1953 0.9802
vn -0.0230 0.2238 0.9744
vn 0.0283 0.4555 0.8898
vn -0.0012 0.5748 0.8183
vn -0.0298 0.6583 0.7522
vn 0.0065 0.7990 0.6013
vn 0.0065 0.9620 0.2730
vn 0.9994 0.0140 0.0330
vn 0.0136 -0.3085 0.9511
vn 0.0273 -0.2229 0.9745
vn 0.2609 -0.7756 -0.5748
vn -0.0108 -0.3573 0.9339
vn 0.0381 -0.4761 0.8785
vn 0.7339 -0.3301 0.5937
vn 0.7157 0.0180 0.6981
vn 0.0043 0.0621 0.9981
vn 0.7105 0.0040 0.7037
vn 0.6241 0.5392 0.5655
vn 0.0051 0.7519 0.6593
vn -0.0055 0.0288 0.9996
vn 0.1296 0.8788 0.4592
vn 0.4525 0.1152 0.8843
vn 0.0467 0.5345 0.8439
vn -0.4055 0.9049 0.1290
vn 0.2357 0.0118 0.9717
vn 0.4647 -0.2663 0.8445
vn 0.6950 0.2944 0.6560
vn 0.2442 0.4140 0.8769
vn 0.7122 0.5257 0.4652
vn 0.1994 0.6203 0.7586
vn 0.6334 0.7711 0.0649
vn 0.3091 0.8655 0.3941
vn 0.6078 0.7118 0.3520
vn 0.4544 0.8751 0.1663
vn 0.4443 0.8690 -0.2179
vn 0.2171 0.6821 0.6983
vn 0.6401 0.3915 0.6611
vn 0.6649 0.5460 0.5097
vn -0.7033 0.0454 0.7095
vn -0.6963 0.0299 0.7171
vn 0.0195 0.0751 0.9970
vn 0.0129 0.0913 0.9957
vn -0.6513 -0.1783 0.7376
vn -0.7170 -0.3349 0.6114
vn -0.0083 -0.2253 0.9743
vn 0.3745 0.1650 0.9124
vn -0.2111 0.9335 -0.2898
vn 0.1221 0.3998 0.9084
vn 0.5096 0.8307 0.2242
vn 0.3177 0.4404 -0.8397
vn 0.0137 0.7901 0.6129
vn 0.1880 0.1176 0.9751
vn -0.2666 0.9280 0.2605
vn -0.6948 0.6999 0.1655
vn -0.5671 0.6268 0.5343
vn -0.5789 0.4550 0.6766
vn -0.5060 0.2521 0.8249
vn -0.2757 0.1051 0.9555
vn 0.2122 0.9770 0.0212
vn -0.0858 0.0275 0.9959
vn 0.2254 0.9438 0.2417
vn -0.2479 -0.9144 -0.3200
vn -0.0108 -0.4843 0.8748
vn -0.0597 -0.4748 0.8780
vn -0.0108 -0.4740 0.8805
vn -0.0265 0.0617 0.9977
vn -0.7266 0.0345 0.6862
vn -0.6176 0.5539 0.5583
vn -0.7181 0.0207 0.6956
vn -0.1148 0.8901 0.4410
vn -0.7081 -0.5816 0.4004
vn -0.0108 -0.4778 0.8784
vn -0.0791 0.4959 0.8648
vn 0.6893 -0.5996 0.4065
vn 0.0306 -0.5702 0.8209
vn 0.6134 -0.1311 -0.7788
vn 0.2580 -0.4487 -0.8556
vn 0.4933 0.1301 -0.8601
vn 0.2049 0.0662 -0.9765
vn 0.2622 0.3661 -0.8929
vn 0.2706 -0.5327 -0.8019
vn 0.7149 -0.3370 -0.6127
vn 0.2541 -0.6132 -0.7480
vn 0.7586 -0.5506 -0.3484
vn 0.6105 -0.7914 0.0326
vn 0.2985 -0.8211 -0.4865
vn 0.4419 -0.8803 -0.1727
vn 0.3358 -0.9383 -0.0824
vn 0.5849 -0.7360 -0.3407
vn 0.5556 -0.2855 -0.7809
vn 0.6198 -0.4467 -0.6452
vn 0.6462 -0.5504 -0.5287
vn 0.0048 -0.0852 -0.9964
vn 0.0047 -0.0907 -0.9959
vn 0.7119 -0.1012 -0.6950
vn 0.7094 -0.1013 -0.6975
vn 0.0109 0.4951 -0.8688
vn 0.0083 0.2264 -0.9740
vn 0.7839 0.1100 -0.6111
vn 0.7095 0.3435 -0.6153
vn 0.3845 -0.1788 -0.9056
vn 0.1202 -0.0796 -0.9896
vn 0.0812 -0.3688 -0.9259
vn -0.7387 0.4174 0.5293
vn -0.6179 -0.7125 -0.3325
vn 0.3398 0.3600 -0.8689
vn 0.1530 -0.2080 -0.9661
vn 0.5546 0.2013 -0.8074
vn 0.7729 -0.0219 -0.6342
vn 0.8507 -0.2940 -0.4358
vn 0.8461 -0.4522 -0.2821
vn 0.7199 -0.6803 -0.1374
vn 0.5247 -0.8493 0.0577
vn 0.2229 -0.9733 0.0553
vn 0.1446 -0.9874 -0.0638
vn -0.0340 -0.9926 0.1162
vn -0.0361 -0.9375 0.3461
vn 0.0396 -0.7671 0.6404
vn 0.2414 -0.9696 0.0392
vn -0.0091 -0.1802 -0.9836
vn -0.0289 0.1538 -0.9877
vn 0.0217 -0.5718 -0.8201
vn -0.0059 -0.3699 -0.9291
vn 0.0263 -0.6442 -0.7644
vn -0.0220 -0.8037 -0.5947
vn -0.0338 -0.9796 0.1983
vn -0.0140 0.3059 -0.9520
vn -0.0328 0.2239 -0.9741
vn 0.0098 0.3667 -0.9303
vn 0.4202 -0.0235 -0.9071
vn 0.0107 0.4740 -0.8805
vn 0.9649 0.1158 -0.2357
vn 0.6785 0.3437 -0.6492
vn 0.0051 -0.0622 -0.9981
vn 0.7071 -0.0691 -0.7037
vn 0.6179 0.5054 -0.6024
vn 0.7033 -0.0374 -0.7099
vn 0.0055 -0.0284 -0.9996
vn 0.0126 0.7181 -0.6958
vn 0.2711 -0.8895 -0.3679
vn -0.2638 -0.2118 -0.9410
vn -0.5792 -0.0018 -0.8152
vn -0.3177 0.2605 -0.9117
vn -0.1182 -0.5477 -0.8283
vn -0.2583 -0.4649 -0.8468
vn -0.7103 -0.2830 -0.6445
vn -0.2364 -0.6432 -0.7283
vn -0.7365 -0.5329 -0.4166
vn -0.5153 -0.8320 -0.2055
vn -0.1040 -0.7109 -0.6956
vn -0.4562 -0.8682 -0.1952
vn -0.5779 -0.7148 -0.3938
vn 0.1373 -0.7191 -0.6812
vn -0.0988 -0.7823 -0.6150
vn -0.6191 -0.4049 -0.6729
vn -0.6405 -0.5559 -0.5299
vn -0.7034 -0.0845 -0.7058
vn -0.7068 -0.0842 -0.7024
vn -0.6943 0.3601 -0.6232
vn -0.7739 0.1285 -0.6201
vn -0.3622 -0.1560 -0.9190
vn 0.5744 -0.1453 0.8056
vn -0.1262 -0.3843 -0.9145
vn -0.1272 -0.4761 -0.8701
vn 0.6962 -0.6659 -0.2683
vn -0.2711 0.5871 -0.7628
vn -0.1798 -0.1060 -0.9780
vn -0.5312 0.2045 -0.8222
vn -0.4670 -0.2896 -0.8355
vn -0.8437 -0.2190 -0.4901
vn -0.8395 -0.4300 -0.3323
vn -0.7500 -0.6482 -0.1318
vn -0.5240 -0.8509 0.0363
vn -0.2113 -0.9741 -0.0807
vn -0.2445 -0.9696 0.0071
vn -0.2996 -0.9199 0.2529
vn -0.4102 -0.0135 -0.9119
vn -0.6630 0.3595 -0.6566
vn -0.3822 -0.4390 0.8131
vn -0.7012 -0.0523 -0.7110
vn -0.5986 0.5198 -0.6095
vn 0.1030 -0.7553 -0.6473
vn 0.1209 -0.9564 -0.2660
vn -0.6958 -0.0208 -0.7180
vn -0.7481 -0.3125 0.5854
vn -0.0111 0.0606 0.9981
vn -0.0132 0.0898 0.9959
vn -0.0047 0.0895 0.9960
vn -0.0082 -0.2116 0.9773
# 233 vertex normals

vt 0.7973 0.0000 0.0000
vt 0.7971 0.0000 0.0000
vt 0.8136 0.0000 0.0000
vt 0.7974 0.0000 0.0000
vt 1.0000 0.0000 0.0000
vt 1.0000 1.0000 0.0000
vt 0.9123 1.0000 0.0000
vt 0.9321 1.0000 0.0000
vt 0.9328 1.0000 0.0000
vt 0.9328 0.9650 0.0000
vt 1.0000 0.9650 0.0000
vt 0.1455 0.0000 0.0000
vt 0.0675 0.0000 0.0000
vt 0.5187 0.0000 0.0000
vt 0.5193 0.0000 0.0000
vt 0.5154 0.0000 0.0000
vt 0.5086 0.0000 0.0000
vt 0.5076 0.0000 0.0000
vt 0.5074 0.0000 0.0000
vt 0.5099 0.0000 0.0000
vt 0.5189 0.0000 0.0000
vt 0.7972 0.0000 0.0000
vt 0.5339 0.0000 0.0000
vt 0.5722 0.0000 0.0000
vt 0.7171 0.0000 0.0000
vt 0.9372 0.0297 0.0000
vt 1.0000 0.0286 0.0000
vt 0.9075 1.0000 0.0000
vt 0.5717 1.0000 0.0000
vt 0.5719 1.0000 0.0000
vt 0.9052 1.0000 0.0000
vt 0.9179 1.0000 0.0000
vt 0.8941 1.0000 0.0000
vt 0.9189 0.9650 0.0000
vt 0.9188 1.0000 0.0000
vt 0.6968 0.9650 0.0000
vt 0.9241 0.0299 0.0000
vt 0.7164 0.0335 0.0000
vt 0.8883 1.0000 0.0000
vt 0.8855 1.0000 0.0000
vt 1.0000 0.0185 0.0000
vt 0.7166 0.0235 0.0000
vt 0.9242 0.0198 0.0000
vt 0.9372 0.0196 0.0000
vt 0.6933 1.0000 0.0000
vt 0.6040 1.0000 0.0000
vt 0.6965 1.0000 0.0000
vt 0.5826 1.0000 0.0000
vt 0.8823 1.0000 0.0000
vt 0.8824 1.0000 0.0000
# 50 texture coords

o Plane011
g Plane011
usemtl 01___Default
s off
f 1/1/1 2/2/2 3/3/3 4/3/4 5/4/5 
f 3/3/3 2/2/2 6/2/6 7/3/7 
f 7/3/7 6/2/6 8/2/8 9/3/9 
f 8/2/8 10/2/10 11/3/11 9/3/9 
f 11/3/11 12/3/12 13/5/13 14/5/14 
f 7/3/7 15/5/15 16/5/16 3/3/3 
f 9/3/9 17/5/17 15/5/15 7/3/7 
f 14/5/14 17/5/17 9/3/9 11/3/11 
f 18/6/18 19/7/19 20/8/20 21/6/21 
s 1
f 22/6/22 23/9/23 24/10/24 25/11/25 
s off
f 3/3/3 16/5/16 26/5/26 4/3/4 
f 27/5/27 28/5/28 29/5/29 30/5/30 
f 28/5/28 31/5/31 32/5/32 29/5/29 
f 16/5/16 33/5/33 34/5/34 26/5/26 
f 16/5/16 15/5/15 35/5/35 33/5/33 
f 15/5/15 17/5/17 36/5/36 35/5/35 
f 17/5/17 14/5/14 37/5/37 36/5/36 
f 13/5/13 38/5/38 37/5/37 14/5/14 
f 39/5/39 40/5/40 38/5/38 13/5/13 
f 39/5/39 41/12/41 42/13/42 40/5/40 
f 31/5/31 26/5/26 34/5/34 32/5/32 
f 43/3/43 44/14/44 41/12/41 39/5/39 
f 5/4/5 45/15/45 46/16/46 1/1/1 
f 2/2/2 47/17/47 48/18/48 6/2/6 
f 6/2/6 48/18/48 49/19/49 8/2/8 
f 49/19/49 50/20/50 10/2/10 8/2/8 
f 50/20/50 51/21/51 52/22/52 10/2/10 
f 52/22/52 51/21/51 44/14/44 43/3/43 12/3/12 11/3/11 10/2/10 
f 43/3/43 39/5/39 13/5/13 12/3/12 
f 53/23/53 31/5/31 28/5/28 54/24/54 
f 5/4/5 4/3/4 26/5/26 31/5/31 53/23/53 45/15/45 
f 54/24/54 28/5/28 27/5/27 55/5/55 56/25/56 
s 1
f 25/11/25 24/10/24 57/26/57 58/27/58 
s off
f 22/6/22 21/6/21 20/8/20 23/9/23 
f 18/6/18 59/6/59 60/28/60 19/7/19 
f 61/6/61 62/6/62 63/29/63 64/30/64 65/31/65 
f 47/17/47 2/2/2 1/1/1 46/16/46 
f 66/3/66 67/2/67 68/1/68 69/4/69 70/3/70 
f 66/3/66 71/3/71 72/2/72 67/2/67 
f 71/3/71 73/3/73 74/2/74 72/2/72 
f 74/2/74 73/3/73 75/3/75 76/2/76 
f 75/3/75 77/5/77 78/5/78 79/3/79 
f 71/3/71 66/3/66 80/5/80 81/5/81 
f 73/3/73 71/3/71 81/5/81 82/5/82 
f 77/5/77 75/3/75 73/3/73 82/5/82 
f 83/6/83 84/6/84 85/32/85 86/33/86 
s 1
f 87/6/87 88/11/88 89/34/24 90/35/89 
s off
f 66/3/66 70/3/70 91/5/90 80/5/80 
f 92/5/91 93/5/92 94/5/93 95/5/94 
f 93/5/92 92/5/91 96/5/95 97/5/96 
f 80/5/80 91/5/90 98/5/97 99/5/98 
f 80/5/80 99/5/98 100/5/99 81/5/81 
f 81/5/81 100/5/99 101/5/100 82/5/82 
f 82/5/82 101/5/100 102/5/101 77/5/77 
f 78/5/78 77/5/77 102/5/101 103/5/102 
f 104/5/103 78/5/78 103/5/102 105/5/104 
f 104/5/103 105/5/104 42/13/42 41/12/41 
f 97/5/96 96/5/95 98/5/97 91/5/90 
f 106/3/105 104/5/103 41/12/41 44/14/44 
f 69/4/69 68/1/68 46/16/46 45/15/45 
f 67/2/67 72/2/72 48/18/48 47/17/47 
f 72/2/72 74/2/74 49/19/49 48/18/48 
f 49/19/49 74/2/74 76/2/76 50/20/50 
f 50/20/50 76/2/76 107/22/52 51/21/51 
f 44/14/44 51/21/51 107/22/52 76/2/76 75/3/75 79/3/79 106/3/105 
f 106/3/105 79/3/79 78/5/78 104/5/103 
f 53/23/53 54/24/54 93/5/92 97/5/96 
f 91/5/90 70/3/70 69/4/69 45/15/45 53/23/53 97/5/96 
f 54/24/54 56/25/56 108/5/106 94/5/93 93/5/92 
s 1
f 109/36/107 89/34/24 110/37/108 111/38/109 
s off
f 87/6/87 90/35/89 85/32/85 84/6/84 
f 83/6/83 86/33/86 112/39/110 113/6/111 
f 64/30/64 63/29/63 114/6/112 115/6/113 116/40/114 
f 47/17/47 46/16/46 68/1/68 67/2/67 
s 1
f 117/41/115 108/5/106 56/25/56 118/42/116 119/43/117 
f 56/25/56 55/5/55 120/41/118 121/44/119 118/42/116 
s off
f 122/3/120 123/2/121 124/1/122 125/4/123 126/3/124 
f 127/2/125 123/2/121 122/3/120 128/3/126 
f 129/2/127 127/2/125 128/3/126 130/3/128 
f 131/3/129 132/2/130 129/2/127 130/3/128 
f 133/5/131 134/3/132 131/3/129 135/5/133 
f 136/5/134 137/5/135 128/3/126 122/3/120 
f 137/5/135 138/5/136 130/3/128 128/3/126 
f 130/3/128 138/5/136 135/5/133 131/3/129 
f 139/45/137 140/46/138 141/6/139 142/6/140 
s 1
f 143/36/141 144/47/142 145/6/143 146/11/144 
s off
f 147/5/145 136/5/134 122/3/120 126/3/124 
f 148/5/146 149/5/147 150/5/148 151/5/149 
f 152/5/150 153/5/151 149/5/147 148/5/146 
f 154/5/152 155/5/153 136/5/134 147/5/145 
f 156/5/154 137/5/135 136/5/134 155/5/153 
f 157/5/155 138/5/136 137/5/135 156/5/154 
f 158/5/156 135/5/133 138/5/136 157/5/155 
f 158/5/156 159/5/157 133/5/131 135/5/133 
f 159/5/157 160/5/158 161/5/159 133/5/131 
f 162/13/160 163/12/161 161/5/159 160/5/158 
f 154/5/152 147/5/145 153/5/151 152/5/150 
f 163/12/161 164/14/162 165/3/163 161/5/159 
f 166/16/164 167/15/165 125/4/123 124/1/122 
f 168/18/166 169/17/167 123/2/121 127/2/125 
f 170/19/168 168/18/166 127/2/125 129/2/127 
f 132/2/130 171/20/169 170/19/168 129/2/127 
f 172/22/52 173/21/170 171/20/169 132/2/130 
f 164/14/162 173/21/170 172/22/52 132/2/130 131/3/129 134/3/132 165/3/163 
f 133/5/131 161/5/159 165/3/163 134/3/132 
f 149/5/147 153/5/151 174/23/171 175/24/172 
f 147/5/145 126/3/124 125/4/123 167/15/165 174/23/171 153/5/151 
f 150/5/148 149/5/147 175/24/172 176/25/173 177/5/174 
s 1
f 178/42/175 143/36/141 146/11/144 179/27/176 180/41/177 
s off
f 139/45/137 142/6/140 145/6/143 144/47/142 
f 181/48/178 182/6/179 141/6/139 140/46/138 
f 183/6/180 184/6/181 185/30/182 186/29/183 
f 124/1/122 123/2/121 169/17/167 166/16/164 
f 187/1/184 188/2/185 189/3/186 190/3/187 191/4/188 
f 192/2/189 193/3/190 189/3/186 188/2/185 
f 194/2/191 195/3/192 193/3/190 192/2/189 
f 196/3/193 195/3/192 194/2/191 197/2/194 
f 198/5/195 199/5/196 196/3/193 200/3/197 
f 201/5/198 189/3/186 193/3/190 202/5/199 
f 202/5/199 193/3/190 195/3/192 203/5/200 
f 195/3/192 196/3/193 199/5/196 203/5/200 
f 139/45/137 204/6/201 205/6/202 140/46/138 
s 1
f 143/36/141 206/11/203 207/6/204 144/47/142 
s off
f 208/5/205 190/3/187 189/3/186 201/5/198 
f 209/5/206 210/5/207 211/5/208 212/5/209 
f 213/5/210 211/5/208 210/5/207 214/5/211 
f 215/5/212 208/5/205 201/5/198 216/5/213 
f 217/5/214 216/5/213 201/5/198 202/5/199 
f 218/5/215 217/5/214 202/5/199 203/5/200 
f 219/5/216 218/5/215 203/5/200 199/5/196 
f 219/5/216 199/5/196 198/5/195 220/5/217 
f 220/5/217 198/5/195 221/5/218 222/5/219 
f 162/13/160 222/5/219 221/5/218 163/12/161 
f 215/5/212 213/5/210 214/5/211 208/5/205 
f 163/12/161 221/5/218 223/3/220 164/14/162 
f 166/16/164 187/1/184 191/4/188 167/15/165 
f 168/18/166 192/2/189 188/2/185 169/17/167 
f 170/19/168 194/2/191 192/2/189 168/18/166 
f 197/2/194 194/2/191 170/19/168 171/20/169 
f 224/22/52 197/2/194 171/20/169 173/21/170 
f 224/22/52 173/21/170 164/14/162 223/3/220 200/3/197 196/3/193 197/2/194 
f 198/5/195 200/3/197 223/3/220 221/5/218 
f 210/5/207 175/24/172 174/23/171 214/5/211 
f 191/4/188 190/3/187 208/5/205 214/5/211 174/23/171 167/15/165 
f 225/5/221 176/25/173 175/24/172 210/5/207 209/5/206 
s 1
f 226/41/222 227/27/223 206/11/203 143/36/141 178/42/175 
s off
f 139/45/137 144/47/142 207/6/204 204/6/201 
f 181/48/178 140/46/138 205/6/202 228/6/224 
f 229/6/225 230/49/226 231/50/227 232/6/228 
f 187/1/184 166/16/164 169/17/167 188/2/185 
s 1
f 176/25/173 225/5/221 226/41/222 178/42/175 
f 180/41/177 177/5/174 176/25/173 178/42/175 
s 2
f 18/6/18 21/6/21 142/6/140 141/6/139 
f 22/6/22 25/11/25 146/11/144 145/6/143 
s 3
f 30/5/30 29/5/29 148/5/146 151/5/149 
s 1
f 27/5/27 30/5/30 151/5/149 150/5/148 
f 29/5/29 32/5/32 152/5/150 148/5/146 
f 34/5/34 33/5/33 155/5/153 154/5/152 
f 33/5/33 35/5/35 156/5/154 155/5/153 
f 35/5/35 36/5/36 157/5/155 156/5/154 
f 36/5/36 37/5/37 158/5/156 157/5/155 
f 37/5/37 38/5/38 159/5/157 158/5/156 
f 38/5/38 40/5/40 160/5/158 159/5/157 
s 3
f 40/5/40 42/13/42 162/13/160 160/5/158 
s 1
f 32/5/32 34/5/34 154/5/152 152/5/150 
s 3
f 55/5/55 27/5/27 150/5/148 177/5/174 
s 2
f 25/11/25 58/27/58 179/27/176 146/11/144 
f 21/6/21 22/6/22 145/6/143 142/6/140 
f 59/6/59 18/6/18 141/6/139 182/6/179 
f 62/6/62 61/6/61 184/6/181 183/6/180 
s 1
f 63/29/63 62/6/62 183/6/180 186/29/183 
s 2
f 84/6/84 83/6/83 205/6/202 204/6/201 
f 88/11/88 87/6/87 207/6/204 206/11/203 
s 1
f 95/5/94 94/5/93 209/5/206 212/5/209 
s 3
f 92/5/91 95/5/94 212/5/209 211/5/208 
s 5
f 96/5/95 92/5/91 211/5/208 213/5/210 
s 4
f 99/5/98 98/5/97 215/5/212 216/5/213 
f 100/5/99 99/5/98 216/5/213 217/5/214 
f 101/5/100 100/5/99 217/5/214 218/5/215 
f 102/5/101 101/5/100 218/5/215 219/5/216 
f 103/5/102 102/5/101 219/5/216 220/5/217 
f 105/5/104 103/5/102 220/5/217 222/5/219 
s 6
f 42/13/42 105/5/104 222/5/219 162/13/160 
s 4
f 98/5/97 96/5/95 213/5/210 215/5/212 
s 3
f 94/5/93 108/5/106 225/5/221 209/5/206 
s 2
f 117/41/115 233/27/229 227/27/223 226/41/222 
f 87/6/87 84/6/84 204/6/201 207/6/204 
f 83/6/83 113/6/111 228/6/224 205/6/202 
s 1
f 114/6/112 63/29/63 186/29/183 230/49/226 229/6/225 
s 2
f 115/6/113 114/6/112 229/6/225 232/6/228 
f 108/5/106 117/41/115 226/41/222 225/5/221 
s 6
f 120/41/118 55/5/55 177/5/174 180/41/177 
s off
f 115/6/113 113/6/111 112/39/110 116/40/114 
f 64/30/64 234/48/230 60/28/60 65/31/65 
s 2
f 61/6/61 59/6/59 182/6/179 184/6/181 
s off
f 184/6/181 182/6/179 181/48/178 185/30/182 
f 185/30/182 181/48/178 228/6/224 232/6/228 231/50/227 
s 2
f 232/6/228 228/6/224 113/6/111 115/6/113 
s off
f 19/7/19 235/46/231 236/45/232 20/8/20 
s 1
f 23/9/23 237/47/233 109/36/107 24/10/24 
f 24/10/24 109/36/107 111/38/109 57/26/57 
s off
f 20/8/20 236/45/232 237/47/233 23/9/23 
f 60/28/60 234/48/230 235/46/231 19/7/19 
f 60/28/60 59/6/59 61/6/61 65/31/65 
f 85/32/85 236/45/232 235/46/231 86/33/86 
s 1
f 89/34/24 109/36/107 237/47/233 90/35/89 
f 89/34/24 88/11/88 233/27/229 110/37/108 
s off
f 90/35/89 237/47/233 236/45/232 85/32/85 
f 86/33/86 235/46/231 234/48/230 112/39/110 
f 112/39/110 234/48/230 64/30/64 116/40/114 
s 1
f 57/26/57 121/44/119 120/41/118 58/27/58 
f 110/37/108 119/43/117 118/42/116 111/38/109 
s 2
f 58/27/58 120/41/118 180/41/177 179/27/176 
f 233/27/229 88/11/88 206/11/203 227/27/223 
s 1
f 111/38/109 118/42/116 121/44/119 57/26/57 
f 233/27/229 117/41/115 119/43/117 110/37/108 
s off
f 230/49/226 186/29/183 185/30/182 231/50/227 
# 217 polygons

